<?xml version="1.0" encoding="UTF-8"?>
<svg xmlns="http://www.w3.org/2000/svg"
viewBox="0 0 8500 11000"
 enable-background="new 0 0 512 512">
 <defs>
  <!-- <style type="text/css">
   <![CDATA[
    .str0 {stroke:#373535;stroke-width:6.94;stroke-miterlimit:2.61313;stroke-dasharray:6.944882 409.748031}
    .fil0 {fill:#FF60CF}
    .fil1 {fill:#FF83DC}
    .fil2 {fill:white}
    .fil3 {fill:black;fill-rule:nonzero}
   ]]>
  </style> -->
 </defs>
 <g>
  <metadata id="CorelCorpID_0Corel-Layer"/>
  <ellipse class="fil0 str0" fill="#FF60CF" stroke="#373535" stroke-dasharray="6.944882 409.748031" stroke-width="6.94" stroke-miterlimit="2.61313" cx="4191.15" cy="5189.27" rx="3207.94" ry="3433.61"/>
  <path class="fil1" fill="#FF83DC" d="M4120.63 1855.44c1744.55,0 2755.64,1491.21 2749.68,3402.67 -5.06,1622.56 -825,3273.95 -2846.87,3282.81 -1744.54,7.65 -2944.97,-1431.26 -2944.97,-3342.74 0,-1911.49 1297.61,-3342.74 3042.16,-3342.74z"/>
  <ellipse class="fil2" fill="white" cx="4224.47" cy="5189.4" rx="1106.76" ry="1927.28"/>
  <path class="fil3" d="M3871.73 9165.46c-157.36,-24.12 -308.61,-42.49 -457.31,-73.28 -1196.34,-247.68 -2063.52,-907.94 -2542.9,-2045.67 -158.52,-376.22 -247.75,-771.53 -293.36,-1177.3 -29.24,-260.06 -47.12,-520.49 -41.09,-782 13.85,-601.05 98.81,-1189.49 323.51,-1751.67 72.15,-180.52 157.68,-354.8 259.01,-520.87 51,-83.58 121.69,-106.72 188.1,-65.78 62.72,38.67 76.91,112.58 28.75,191.27 -270.7,442.3 -419,927.41 -493.39,1435.89 -60.44,413.22 -67.36,829.37 -38.24,1246.36 31.92,457.09 120.06,901.27 295.63,1325.65 362.71,876.7 997.51,1465.06 1891.61,1776.22 414.86,144.38 844.72,207.08 1281.41,200.35 768.59,-11.84 1484.8,-204.31 2108.64,-672.57 577.04,-433.13 934.46,-1014.93 1130.2,-1702.64 143.02,-502.44 185.17,-1016.11 171.56,-1536.05 -1.09,-41.42 -2.49,-82.95 -0.54,-124.28 3.46,-73.68 55.07,-125.94 121.17,-125.72 65.49,0.22 114.74,53.64 122.18,125.73 24.58,238.01 11.82,476.17 -3.89,713.41 -23.95,361.6 -81.42,718.5 -185.77,1066.62 -172.54,575.59 -453.9,1088.2 -886.17,1510.67 -497.97,486.68 -1100.19,773.91 -1777.65,910.72 -149.16,30.13 -301.04,46.77 -457.19,72.28 -249.34,2.65 -493.16,2.65 -744.26,2.65z"/>
  <path class="fil3" fill="black" d="M4587.65 1207.77c252.81,33.54 498.85,63.52 738.8,129.28 1218.84,334.04 2015.98,1105.22 2395.58,2309.46 66.89,212.2 113.75,429.02 147.48,648.89 13.67,89.09 -19.73,152.63 -93.54,167.43 -76.98,15.44 -136.21,-31.13 -151.25,-127.48 -27.55,-176.5 -64.14,-350.87 -112.21,-522.81 -213.62,-764.18 -627.01,-1387.04 -1300.51,-1821.8 -465.35,-300.4 -979.8,-459.13 -1528.84,-516.58 -600.62,-62.85 -1188.02,-8.48 -1758.3,193.02 -478.93,169.23 -898.01,433.36 -1241.84,811.2 -70.78,77.78 -143.02,87.84 -201.38,30.11 -56.68,-56.07 -55.08,-119.31 9.59,-191.98 195.93,-220.16 422.15,-404.67 671.79,-560.26 436.81,-272.25 913.44,-434.35 1421.45,-507.56 94.5,-13.61 189.47,-24.05 289.85,-38.44 239.09,-2.49 472.55,-2.49 713.3,-2.49z"/>
  <path class="fil3" fill="black" d="M2850.35 2199.09c-759.73,353.28 -1217.19,948.98 -1439.56,1739.34 -118.69,421.84 -156.93,852.41 -155.25,1289.28 2.06,535.28 74.69,1056.37 278.36,1554.72 199.43,487.94 514.52,882.81 951.22,1179.5 25.69,17.46 52.74,33.31 76.56,53.06 54.19,44.9 64.41,112.3 27.55,166.37 -37.42,54.9 -102.25,72.44 -164.03,35.92 -204.19,-120.69 -385.71,-270.64 -547.62,-443.37 -429.39,-458.08 -669.03,-1008.66 -785.09,-1619.19 -68.39,-359.75 -97.53,-722.94 -87.85,-1088.42 15.39,-580.79 99.49,-1149.16 341.82,-1683.84 394.98,-871.49 1077.55,-1396.33 1997.38,-1609.38 939.44,-217.59 1847.98,-130.25 2692.53,365.16 580.17,340.32 960.51,849.19 1186.44,1477.16 149.11,414.43 215.52,843.87 239.38,1283.09 24.72,455.26 -4.56,905.29 -97.84,1350.31 -116.75,556.94 -343.44,1062.06 -731.96,1486.31 -379.54,414.44 -846.71,685.52 -1385.19,833.68 -762.57,209.83 -1518.83,186.89 -2265.6,-79.48 -19.49,-6.95 -39.3,-13.59 -57.69,-22.89 -67.34,-34.03 -92.82,-97.3 -66.35,-161.83 23.46,-57.19 88.72,-87.93 155.25,-64.62 200.46,70.23 402.67,134.47 613.01,166.51 818.72,124.7 1600.89,32.31 2315.61,-414.96 462.06,-289.17 787.03,-697.69 995.28,-1200.2 212.49,-512.77 283.28,-1049.88 283.02,-1600.91 -0.22,-492.37 -53.33,-975.56 -214.8,-1443.4 -298.98,-866.23 -890.27,-1432.34 -1766.16,-1689.78 -730.31,-214.65 -1460.72,-193.94 -2181.64,57.77 -68.33,23.86 -134.43,54.12 -206.77,84.09z"/>
  <path class="fil3" fill="black" d="M3836.92 7160.17c-327.56,-167.76 -507.48,-449.18 -629.02,-775.18 -115.84,-310.72 -158.18,-635.06 -175.36,-965.12 -22.09,-424.1 5.61,-842.81 114.36,-1253.56 75.09,-283.65 193.81,-548.88 408.76,-756.09 447.72,-431.58 1080.57,-379.93 1466.35,115.05 194.11,249.05 292.53,538.94 354.1,843.69 17.37,85.97 30.5,172.87 43.25,259.69 11.49,78.31 -34.54,144.84 -105.02,156.59 -63.81,10.64 -122.36,-29.19 -136.44,-107.74 -32.83,-183.13 -60.69,-366.98 -119.68,-544.4 -55.96,-168.3 -129.74,-327.04 -241.62,-466.06 -325.05,-403.92 -853.22,-397.46 -1168.95,14.7 -177.79,232.09 -267.2,500.97 -313.45,784.81 -88.15,541 -88.15,1081.16 39.33,1616.95 48.82,205.17 124.78,400.76 251.11,572.28 162.47,220.58 368.84,361.2 656.44,344.98 206.78,-11.67 369.03,-112 502.25,-262.23 182.04,-205.3 274.65,-454.43 333.5,-717.29 56.07,-250.48 83.35,-504.49 80.97,-761.64 -1.26,-136.56 43.22,-197.44 134.66,-194.35 82.53,2.78 124.68,69.11 119.35,200.61 -17.65,435.85 -59.3,867.48 -246.46,1270.45 -90.47,194.8 -206.92,371.66 -379.11,504.17 -303.11,233.25 -631.44,279.5 -989.3,119.68z"/>
 </g>
</svg>
